<?xml version="1.0" encoding="UTF-8"?>
<svg width="444px" height="362px" viewBox="0 0 444 362" version="1.1" 
    xmlns="http://www.w3.org/2000/svg" 
    xmlns:xlink="http://www.w3.org/1999/xlink">
    <!-- Generator: Sketch 49 (51002) - http://www.bohemiancoding.com/sketch -->
    <title>02n</title>
    <desc>Created with Sketch.</desc>
    <defs></defs>
    <g id="Page-1" stroke="none" stroke-width="1" fill="none" fill-rule="evenodd">
        <g id="weather" transform="translate(-1602.000000, -50.000000)" fill="#f8f8f2" fill-rule="nonzero">
            <g id="02n" transform="translate(1602.000000, 50.000000)">
                <path d="M69.9668,362 C31.49512,361.74658 0.25,330.3418 0.25,291.99365 C0.25,258.66943 23.23633,230.81396 54.5293,223.73144 C54.02051,220.93164 53.76465,218.0747 53.76465,215.17187 C53.76465,188.91943 75.12305,167.56152 101.375,167.56152 C110.0957,167.56152 118.45312,169.88818 125.74512,174.24951 C145.72657,147.82666 176.55762,132.35205 210.20508,132.35205 C262.79297,132.35205 307.1211,171.09033 314.98633,222.13623 C351.38477,224.58838 380.25,254.98389 380.25,291.99365 C380.25,330.21582 349.1543,361.61816 310.93164,361.99463 L69.9668,362 Z M101.375,187.56152 C86.15039,187.56152 73.76465,199.94726 73.76465,215.17187 C73.76465,219.51464 74.75098,223.67773 76.69531,227.54589 C78.22168,230.583 78.10156,234.18798 76.375,237.11669 C74.64844,240.04491 71.55176,241.8955 68.15527,242.02978 C41.29297,243.09033 20.25,265.0371 20.25,291.99365 C20.25,319.38623 42.58203,341.81933 70.03223,342 L310.83301,341.99512 C338.03711,341.72657 360.25,319.2959 360.25,291.99366 C360.25,264.41407 337.8125,241.97657 310.2334,241.97657 C309.20606,241.97657 308.08887,242.021 306.71875,242.11622 C304.07422,242.29884 301.44434,241.41944 299.44141,239.667 C297.43848,237.91456 296.21582,235.43653 296.0459,232.78028 C293.15235,187.68018 255.44629,152.35206 210.20508,152.35206 C179.86621,152.35206 152.34668,167.86085 136.59082,193.83839 C134.99609,196.46827 132.2793,198.21778 129.22559,198.58204 C126.1709,198.94483 123.12012,197.88526 120.9502,195.70411 C115.72852,190.45312 108.77637,187.56152 101.375,187.56152 Z" id="Shape"></path>
                <path d="M369.24023,237.16748 C364.70703,237.16748 360.60156,234.06396 359.51562,229.45996 C358.24804,224.08447 361.57812,218.69971 366.9541,217.43213 C385.29199,213.10791 401.90918,203.6958 415.04004,190.39356 C392.09766,184.93946 371.19141,172.79542 354.88965,155.21094 C334.26856,132.9668 322.91211,104.00244 322.91211,73.65332 C322.91211,54.99512 327.16113,36.8999 335.31445,20.46191 C312.30957,22.41503 290.84375,32.18652 274.13379,48.46728 C255.3916,66.72705 244.67285,91.16406 243.95117,117.27685 C243.79785,122.79785 239.21289,127.18749 233.67871,126.99658 C228.1582,126.84424 223.80664,122.24512 223.95898,116.72412 C224.82519,85.38135 237.6875,56.05322 260.17675,34.14209 C282.70898,12.18848 312.44726,0.09814 343.9121,0.09814 C347.11815,0.09814 350.40233,0.23144 353.67089,0.49462 C357.24804,0.78222 360.39648,2.96483 361.92187,6.21337 C363.44628,9.46191 363.11328,13.27831 361.0498,16.21386 C349.18359,33.0913 342.9121,52.95312 342.9121,73.65331 C342.9121,98.94433 352.37499,123.07958 369.55663,141.61376 C386.64745,160.04931 409.80272,171.31005 434.75878,173.32128 C438.33495,173.60985 441.48339,175.79247 443.0078,179.04052 C444.53221,182.28906 444.19921,186.10546 442.13573,189.04052 C425.17186,213.16796 400.10155,230.16406 371.54393,236.89794 C370.77246,237.08008 370,237.16748 369.24023,237.16748 Z" id="Shape"></path>
            </g>
        </g>
    </g>
</svg>