<?xml version="1.0" encoding="UTF-8"?>
<svg width="380px" height="231px" viewBox="0 0 380 231" version="1.1" 
    xmlns="http://www.w3.org/2000/svg" 
    xmlns:xlink="http://www.w3.org/1999/xlink">
    <!-- Generator: Sketch 49 (51002) - http://www.bohemiancoding.com/sketch -->
    <title>03n</title>
    <desc>Created with Sketch.</desc>
    <defs></defs>
    <g id="Page-1" stroke="none" stroke-width="1" fill="none" fill-rule="evenodd">
        <g id="weather" transform="translate(0.000000, -118.000000)" fill="#f8f8f2" fill-rule="nonzero">
            <g id="03n" transform="translate(0.000000, 118.000000)">
                <path d="M69.7168,230.19238 C31.24512,229.93896 0,198.53418 0,160.18603 C0,126.86181 22.98682,99.00634 54.27881,91.92333 C53.77002,89.12401 53.51465,86.26757 53.51465,83.36425 C53.51465,57.11181 74.87256,35.7539 101.12549,35.7539 C109.84522,35.7539 118.20313,38.08105 125.49512,42.44189 C145.47608,16.01904 176.30713,0.54443 209.95557,0.54443 C262.54395,0.54443 306.8711,39.28271 314.73584,90.32861 C351.13428,92.78076 380,123.17627 380,160.18604 C380,198.40821 348.9043,229.81055 310.68213,230.18702 L69.7168,230.19238 Z M101.12549,55.75391 C85.90088,55.75391 73.51465,68.13965 73.51465,83.36426 C73.51465,87.70752 74.50049,91.8711 76.44483,95.73828 C77.97169,98.77539 77.85108,102.38037 76.12452,105.30908 C74.39796,108.2373 71.30177,110.08789 67.90479,110.22217 C41.04248,111.28271 20,133.22949 20,160.18604 C20,187.57862 42.33252,210.01172 69.78271,210.19239 L310.58349,210.18751 C337.78759,209.91896 359.99999,187.48829 359.99999,160.18605 C359.99999,132.60646 337.56249,110.16896 309.98339,110.16896 C308.95556,110.16896 307.83837,110.21339 306.46777,110.30861 C303.81445,110.49367 301.19384,109.61134 299.19091,107.85939 C297.18798,106.10695 295.96581,103.62843 295.7954,100.97267 C292.90233,55.87257 255.19726,20.54445 209.95556,20.54445 C179.61572,20.54445 152.09667,36.05324 136.34179,62.03029 C134.74706,64.66017 132.03027,66.40968 128.97607,66.77443 C125.92334,67.13478 122.87011,66.07765 120.70117,63.8965 C115.479,58.64551 108.52686,55.75391 101.12549,55.75391 Z" id="Shape"></path>
            </g>
        </g>
    </g>
</svg>