<?xml version="1.0" encoding="UTF-8"?>
<svg width="380px" height="337px" viewBox="0 0 380 337" version="1.1" 
    xmlns="http://www.w3.org/2000/svg" 
    xmlns:xlink="http://www.w3.org/1999/xlink">
    <!-- Generator: Sketch 49 (51002) - http://www.bohemiancoding.com/sketch -->
    <title>09n</title>
    <desc>Created with Sketch.</desc>
    <defs></defs>
    <g id="Page-1" stroke="none" stroke-width="1" fill="none" fill-rule="evenodd">
        <g id="weather" transform="translate(-530.000000, -694.000000)" fill="#f8f8f2" fill-rule="nonzero">
            <g id="09n" transform="translate(530.000000, 694.000000)">
                <path d="M310.57959,230.09082 L299.99561,230.08691 L69.7168,230 C31.2749,230 0,198.63867 0,160.08936 C0,126.81299 22.98633,98.99561 54.27881,91.92139 C53.77051,89.12256 53.51465,86.26612 53.51465,83.36377 C53.51465,57.11084 74.87256,35.75244 101.12549,35.75244 C109.84619,35.75244 118.20313,38.07861 125.49463,42.43945 C145.47705,16.01465 176.30859,0.53808 209.95557,0.53808 C262.54053,0.53808 306.86524,39.2666 314.73389,90.30419 C351.13575,92.75243 380,123.13817 380,160.13769 C380,198.33398 348.90381,229.71484 310.68164,230.08984 C310.64795,230.09082 310.61377,230.09082 310.57959,230.09082 Z M300.00342,210.08691 L310.53516,210.09082 C337.81494,209.7959 360,187.39746 360,160.1377 C360,132.57178 337.5625,110.14502 309.9834,110.14502 C308.80469,110.14502 307.54492,110.22168 306.46778,110.29639 C303.81641,110.48291 301.19434,109.59961 299.19092,107.84717 C297.18799,106.09473 295.96582,103.61621 295.79541,100.96045 C292.90283,55.86377 255.19727,20.53809 209.95557,20.53809 C179.61719,20.53809 152.09815,36.04834 136.3418,62.02735 C134.74707,64.65723 132.03028,66.40674 128.97608,66.77149 C125.9209,67.13135 122.87012,66.07471 120.70118,63.89356 C115.47999,58.64356 108.52784,55.75245 101.1255,55.75245 C85.90089,55.75245 73.51466,68.13868 73.51466,83.36378 C73.51466,87.70753 74.5005,91.87062 76.44484,95.7378 C77.9717,98.77491 77.85109,102.37989 76.12453,105.3086 C74.39797,108.23682 71.30178,110.08741 67.9048,110.22169 C41.04248,111.28223 20,133.18701 20,160.08936 C20,187.61036 42.30273,210 69.7168,210 L80,210 L300.00342,210.08691 Z" id="Shape"></path>
                <path d="M154.95801,336.93945 C152.39697,336.93945 149.83643,335.96191 147.8833,334.00683 C143.97998,330.0996 143.9834,323.76757 147.89062,319.86523 L172.93261,294.84863 C176.84032,290.94531 183.17187,290.94824 187.0747,294.85547 C190.97802,298.7627 190.9746,305.09473 187.06738,308.99707 L162.02539,334.01367 C160.07324,335.96387 157.51514,336.93945 154.95801,336.93945 Z" id="Shape"></path>
                <path d="M67.95801,279.93945 C65.39697,279.93945 62.83643,278.96191 60.8833,277.00683 C56.97998,273.0996 56.9834,266.76855 60.89062,262.86523 L76.68261,247.08886 C80.58984,243.18554 86.92138,243.18847 90.8247,247.0957 C94.72802,251.00293 94.7246,257.33398 90.81738,261.2373 L75.02539,277.01367 C73.07324,278.96387 70.51562,279.93945 67.95801,279.93945 Z" id="Shape"></path>
                <path d="M206.95801,279.93945 C204.39697,279.93945 201.83643,278.96191 199.8833,277.00683 C195.97998,273.0996 195.9834,266.76855 199.89062,262.86523 L215.68261,247.08886 C219.58984,243.18554 225.92138,243.18847 229.8247,247.0957 C233.72802,251.00293 233.7246,257.33398 229.81738,261.2373 L214.02539,277.01367 C212.07324,278.96387 209.51562,279.93945 206.95801,279.93945 Z" id="Shape"></path>
                <path d="M251.95801,305.10254 C249.39649,305.10254 246.83545,304.125 244.88233,302.16895 C240.9795,298.26172 240.98389,291.92969 244.89161,288.02735 L285.8838,247.0879 C289.79151,243.18458 296.12306,243.18849 300.02589,247.09669 C303.92872,251.00392 303.92433,257.33595 300.01661,261.23829 L259.02442,302.17774 C257.07227,304.12793 254.51514,305.10254 251.95801,305.10254 Z" id="Shape"></path>
                <path d="M100.95801,316.10254 C98.39697,316.10254 95.83643,315.125 93.8833,313.16992 C89.97998,309.26269 89.9834,302.93164 93.89062,299.02832 L145.88281,247.08887 C149.79004,243.18555 156.12158,243.18848 160.0249,247.09571 C163.92822,251.00294 163.9248,257.33399 160.01758,261.23731 L108.02539,313.17676 C106.07324,315.12695 103.51514,316.10254 100.95801,316.10254 Z" id="Shape"></path>
            </g>
        </g>
    </g>
</svg>