<?xml version="1.0" encoding="UTF-8"?>
<svg width="416px" height="473px" viewBox="0 0 416 473" version="1.1" 
    xmlns="http://www.w3.org/2000/svg" 
    xmlns:xlink="http://www.w3.org/1999/xlink">
    <!-- Generator: Sketch 49 (51002) - http://www.bohemiancoding.com/sketch -->
    <title>10d</title>
    <desc>Created with Sketch.</desc>
    <defs></defs>
    <g id="Page-1" stroke="none" stroke-width="1" fill="none" fill-rule="evenodd">
        <g id="weather" transform="translate(-2162.000000, 0.000000)" fill="#f8f8f2" fill-rule="nonzero">
            <g id="10d" transform="translate(2162.000000, 0.000000)">
                <path d="M301.53223,233.50049 C299.01661,233.50049 296.50586,232.50781 294.6377,230.53858 C291.02735,226.73194 291.18555,220.71924 294.99219,217.1084 C309.48242,203.36279 317.46289,184.79785 317.46289,164.8335 C317.46289,125.11133 285.14648,92.79541 245.4248,92.79541 C210.53613,92.79541 180.72363,117.66846 174.53613,151.93799 C173.60351,157.1001 168.65918,160.5293 163.5,159.59863 C158.33594,158.6665 154.90625,153.72509 155.83887,148.56201 C163.66016,105.23926 201.33692,73.79541 245.42481,73.79541 C295.62305,73.79541 336.4629,114.63477 336.4629,164.8335 C336.4629,190.06299 326.37892,213.52344 308.06837,230.89258 C306.23145,232.63574 303.87891,233.50049 301.53223,233.50049 Z" id="Shape"></path>
                <path d="M217.26855,65.82764 C212.89843,65.82764 208.96484,62.79493 207.99609,58.35059 L197.97754,12.43067 C196.8584,7.30469 200.10742,2.24268 205.2334,1.12403 C210.36914,0.0044 215.42285,3.25538 216.54004,8.38087 L226.55859,54.30079 C227.67773,59.42677 224.42871,64.48878 219.30273,65.60743 C218.62012,65.75635 217.93848,65.82764 217.26855,65.82764 Z" id="Shape"></path>
                <path d="M356.90039,154.60498 C352.53027,154.60498 348.59668,151.57227 347.62793,147.12793 C346.50879,142.00195 349.75781,136.93994 354.88379,135.82129 L403.73438,125.16358 C408.8711,124.04395 413.92383,127.29493 415.04102,132.42042 C416.16016,137.5464 412.91114,142.60841 407.78516,143.72706 L358.93457,154.38477 C358.25195,154.53369 357.57031,154.60498 356.90039,154.60498 Z" id="Shape"></path>
                <path d="M305.77246,81.85742 C304.01562,81.85742 302.23828,81.37109 300.64941,80.35156 C296.23437,77.51758 294.95214,71.64062 297.78613,67.2251 L324.59472,25.45606 C327.4287,21.04053 333.30468,19.75879 337.72167,22.59229 C342.13671,25.42627 343.41894,31.30323 340.58495,35.71875 L313.77636,77.48779 C311.96191,80.31494 308.89941,81.85742 305.77246,81.85742 Z" id="Shape"></path>
                <path d="M149.02539,116.05469 C147.26855,116.05469 145.49121,115.56836 143.90332,114.54883 L102.13379,87.74072 C97.71777,84.90674 96.43555,79.02978 99.26953,74.61426 C102.10351,70.19874 107.98047,68.91699 112.39551,71.75049 L154.16504,98.5586 C158.58106,101.39258 159.86328,107.26954 157.0293,111.68506 C155.21484,114.51221 152.15234,116.05469 149.02539,116.05469 Z" id="Shape"></path>
                <path d="M380.76172,265.62646 C379.00488,265.62646 377.22754,265.14013 375.63867,264.1206 L333.87012,237.31249 C329.45508,234.47851 328.17285,228.60155 331.00684,224.18603 C333.84083,219.77051 339.7168,218.4873 344.13379,221.32226 L385.90234,248.13037 C390.31738,250.96435 391.59961,256.84131 388.76562,261.25683 C386.95117,264.08398 383.88867,265.62646 380.76172,265.62646 Z" id="Shape"></path>
                <path d="M64.11035,373.56055 C29.01172,373.32959 0.50781,344.68018 0.50781,309.6958 C0.50781,279.44043 21.27832,254.12646 49.61719,247.51611 C49.2002,245.08691 48.99121,242.61132 48.99121,240.09716 C48.99121,216.0703 68.53809,196.52294 92.56543,196.52294 C100.41113,196.52294 107.9375,198.58153 114.53027,202.44384 C132.72363,178.58593 160.67285,164.62353 191.16406,164.62353 C238.9082,164.62353 279.1709,199.70312 286.47363,245.99267 C319.51465,248.39941 345.66113,276.05126 345.66113,309.69579 C345.66113,344.56444 317.29297,373.2119 282.4248,373.55565 L64.11035,373.56055 Z M92.56543,215.52295 C79.01563,215.52295 67.99121,226.54688 67.99121,240.09717 C67.99121,243.96338 68.86816,247.66846 70.59863,251.10889 C72.0498,253.99463 71.93554,257.41944 70.29492,260.20166 C68.65527,262.98389 65.71387,264.74219 62.48633,264.86963 C38.38574,265.82129 19.50781,285.51123 19.50781,309.6958 C19.50781,334.27197 39.54492,354.39844 64.17285,354.56055 L282.33105,354.55616 C306.73242,354.31544 326.66113,334.19093 326.66113,309.69581 C326.66113,284.95265 306.53027,264.82227 281.78711,264.82227 C280.86133,264.82227 279.85938,264.86182 278.63184,264.94678 C276.10157,265.12647 273.6211,264.28369 271.71973,262.61963 C269.81641,260.95508 268.65625,258.60059 268.49414,256.07764 C265.88769,215.44922 231.9209,183.62354 191.16406,183.62354 C163.83301,183.62354 139.04101,197.59522 124.84765,220.99756 C123.33203,223.49561 120.75195,225.15772 117.85058,225.50391 C114.94726,225.84864 112.04882,224.84131 109.98925,222.77051 C105.34082,218.09668 99.15234,215.52295 92.56543,215.52295 Z" id="Shape"></path>
                <path d="M147.45215,472.82178 C145.01953,472.82178 142.58692,471.89307 140.73145,470.03614 C137.02344,466.32423 137.02637,460.30909 140.73829,456.60108 L163.42579,433.93653 C167.1377,430.22901 173.15235,430.23145 176.86036,433.94288 C180.56837,437.65479 180.56544,443.66993 176.85352,447.37794 L154.16602,470.04249 C152.31152,471.89551 149.88184,472.82178 147.45215,472.82178 Z" id="Shape"></path>
                <path d="M68.63184,421.18115 C66.19922,421.18115 63.76661,420.25244 61.91114,418.39502 C58.20313,414.68311 58.20606,408.66846 61.91798,404.95996 L76.2256,390.66699 C79.93654,386.95996 85.95119,386.9624 89.66017,390.67431 C93.36818,394.38622 93.36525,400.40087 89.65333,404.10937 L75.34571,418.40234 C73.49121,420.25488 71.06152,421.18115 68.63184,421.18115 Z" id="Shape"></path>
                <path d="M194.56348,421.18115 C192.13086,421.18115 189.69825,420.25293 187.84278,418.39551 C184.13477,414.6836 184.1377,408.66846 187.84962,404.96045 L202.15626,390.66748 C205.86817,386.96045 211.88282,386.96191 215.59083,390.67383 C219.29884,394.38575 219.29591,400.40088 215.58399,404.10889 L201.27735,418.40186 C199.42285,420.25439 196.99316,421.18115 194.56348,421.18115 Z" id="Shape"></path>
                <path d="M235.33301,443.97852 C232.89942,443.97852 230.4668,443.04932 228.61133,441.1919 C224.90332,437.4795 224.90723,431.46436 228.62012,427.75684 L265.75782,390.66651 C269.46973,386.9585 275.48438,386.9629 279.19239,390.67481 C282.9004,394.38721 282.89649,400.40235 279.1836,404.10987 L242.0459,441.2002 C240.19141,443.05273 237.7627,443.97852 235.33301,443.97852 Z" id="Shape"></path>
                <path d="M98.5293,453.94434 C96.09668,453.94434 93.66407,453.01563 91.8086,451.1587 C88.10059,447.44679 88.10352,441.43165 91.81544,437.72364 L138.91896,390.66749 C142.63087,386.95948 148.64552,386.9629 152.35353,390.67384 C156.06154,394.38575 156.05861,400.40089 152.34669,404.1089 L105.24317,451.16505 C103.38867,453.01807 100.95898,453.94434 98.5293,453.94434 Z" id="Shape"></path>
            </g>
        </g>
    </g>
</svg>