<?xml version="1.0" encoding="UTF-8"?>
<svg width="380px" height="337px" viewBox="0 0 380 337" version="1.1" 
    xmlns="http://www.w3.org/2000/svg" 
    xmlns:xlink="http://www.w3.org/1999/xlink">
    <!-- Generator: Sketch 49 (51002) - http://www.bohemiancoding.com/sketch -->
    <title>11n</title>
    <desc>Created with Sketch.</desc>
    <defs></defs>
    <g id="Page-1" stroke="none" stroke-width="1" fill="none" fill-rule="evenodd">
        <g id="weather" transform="translate(0.000000, -694.000000)" fill="#f8f8f2" fill-rule="nonzero">
            <g id="11n" transform="translate(0.000000, 694.000000)">
                <path d="M310.57959,230.09082 L299.99561,230.08691 C294.47315,230.08496 289.99756,225.60644 289.99952,220.083 C290.00147,214.56152 294.47852,210.08691 299.99952,210.08691 C300.00098,210.08691 300.00196,210.08691 300.00343,210.08691 L310.53517,210.09082 C337.81494,209.7959 360,187.39746 360,160.1377 C360,132.57178 337.5625,110.14502 309.9834,110.14502 C308.80469,110.14502 307.54492,110.22168 306.46778,110.29639 C303.81446,110.48291 301.19385,109.59961 299.19092,107.84717 C297.18799,106.09473 295.96582,103.61621 295.79541,100.96045 C292.90283,55.86377 255.19727,20.53809 209.95557,20.53809 C179.61719,20.53809 152.09815,36.04834 136.3418,62.02735 C134.74707,64.65723 132.03028,66.40674 128.97608,66.77149 C125.92335,67.13135 122.87012,66.07471 120.70118,63.89356 C115.47999,58.64356 108.52784,55.75245 101.1255,55.75245 C85.90089,55.75245 73.51466,68.13868 73.51466,83.36378 C73.51466,87.70753 74.5005,91.87062 76.44484,95.7378 C77.9717,98.77491 77.85109,102.37989 76.12453,105.3086 C74.39797,108.23682 71.30178,110.08741 67.9048,110.22169 C41.04248,111.28223 20,133.18701 20,160.08936 C20,187.61036 42.30273,210 69.7168,210 L80,210 C85.52295,210 90,214.47754 90,220 C90,225.52246 85.52295,230 80,230 L69.7168,230 C31.2749,230 0,198.63867 0,160.08936 C0,126.81299 22.98633,98.99561 54.27881,91.92139 C53.77051,89.12256 53.51465,86.26612 53.51465,83.36377 C53.51465,57.11084 74.87256,35.75244 101.12549,35.75244 C109.84619,35.75244 118.20313,38.07861 125.49463,42.43945 C145.47705,16.01465 176.30859,0.53808 209.95557,0.53808 C262.54053,0.53808 306.86524,39.2666 314.73389,90.30419 C351.13574,92.75244 380,123.13818 380,160.1377 C380,198.33399 348.90381,229.71485 310.68164,230.08985 C310.64795,230.09082 310.61377,230.09082 310.57959,230.09082 Z" id="Shape"></path>
                <path d="M96.0332,324.08496 C93.47607,324.08496 90.91943,323.11035 88.96728,321.16113 C85.05908,317.25879 85.05468,310.92675 88.95703,307.01855 L131.91504,264 L106.0332,264 C101.9414,264 98.26269,261.50781 96.7456,257.70703 C95.229,253.90723 96.18017,249.56641 99.14697,246.74902 L162.14697,186.91992 C166.15185,183.11719 172.48095,183.27832 176.28418,187.28515 C180.0874,191.28906 179.92432,197.61913 175.91943,201.42187 L131.08496,244 L156.0332,244 C160.07666,244 163.72216,246.43457 165.2705,250.16992 C166.81933,253.90527 165.9663,258.20508 163.10937,261.0664 L103.10937,321.15136 C101.15625,323.10645 98.59473,324.08496 96.0332,324.08496 Z" id="Shape"></path>
                <path d="M197.95801,288.93945 C195.39697,288.93945 192.83643,287.96191 190.8833,286.00683 C186.97998,282.0996 186.9834,275.76855 190.89062,271.86523 L233.79883,229 L207.95801,229 C203.87061,229 200.19483,226.5127 198.6753,222.71875 C197.15528,218.9248 198.09718,214.58691 201.05421,211.76563 L264.05421,151.64454 C268.04982,147.83204 274.37941,147.97901 278.19239,151.97511 C282.00538,155.97072 281.85743,162.30031 277.86182,166.11329 L232.92139,209 L257.95801,209 C262.00342,209 265.65039,211.4375 267.19776,215.17578 C268.74512,218.91308 267.8877,223.21582 265.0254,226.07422 L205.0254,286.01367 C203.07324,287.96387 200.51562,288.93945 197.95801,288.93945 Z" id="Shape"></path>
                <path d="M146.95801,336.93945 C144.39697,336.93945 141.83643,335.96191 139.8833,334.00683 C135.97998,330.0996 135.9834,323.76757 139.89062,319.86523 L164.93261,294.84863 C168.83984,290.94531 175.17138,290.94824 179.0747,294.85547 C182.97802,298.7627 182.9746,305.09473 179.06738,308.99707 L154.02539,334.01367 C152.07324,335.96387 149.51514,336.93945 146.95801,336.93945 Z" id="Shape"></path>
                <path d="M55.95801,303.93945 C53.39697,303.93945 50.83643,302.96191 48.8833,301.00683 C44.97998,297.0996 44.9834,290.76855 48.89062,286.86523 L64.68261,271.08886 C68.58984,267.18652 74.92138,267.18945 78.8247,271.0957 C82.72802,275.00293 82.7246,281.33398 78.81738,285.2373 L63.02539,301.01367 C61.07324,302.96387 58.51562,303.93945 55.95801,303.93945 Z" id="Shape"></path>
                <path d="M234.95801,317.93945 C232.39697,317.93945 229.83643,316.96191 227.8833,315.00683 C223.97998,311.0996 223.9834,304.76855 227.89062,300.86523 L279.88281,248.92578 C283.79004,245.02246 290.12158,245.02539 294.0249,248.93262 C297.92822,252.83985 297.9248,259.1709 294.01758,263.07422 L242.02539,315.01367 C240.07324,316.96387 237.51514,317.93945 234.95801,317.93945 Z" id="Shape"></path>
            </g>
        </g>
    </g>
</svg>