<?xml version="1.0" encoding="UTF-8"?>
<svg width="380px" height="384px" viewBox="0 0 380 384" version="1.1" 
    xmlns="http://www.w3.org/2000/svg" 
    xmlns:xlink="http://www.w3.org/1999/xlink">
    <!-- Generator: Sketch 49 (51002) - http://www.bohemiancoding.com/sketch -->
    <title>13n</title>
    <desc>Created with Sketch.</desc>
    <defs></defs>
    <g id="Page-1" stroke="none" stroke-width="1" fill="none" fill-rule="evenodd">
        <g id="weather" transform="translate(-1070.000000, -672.000000)" fill="#f8f8f2" fill-rule="nonzero">
            <g id="13n" transform="translate(1070.000000, 672.000000)">
                <path d="M310.5791,230.09082 L299.99512,230.08691 L69.7168,230 C31.27491,230 0,198.63867 0,160.08936 C0,126.81299 22.98633,98.99561 54.27881,91.92139 C53.77051,89.12256 53.51465,86.26612 53.51465,83.36377 C53.51465,57.11084 74.87256,35.75244 101.12549,35.75244 C109.84619,35.75244 118.20313,38.07861 125.49463,42.43945 C145.47705,16.01465 176.30859,0.53808 209.95557,0.53808 C262.54004,0.53808 306.86524,39.2666 314.73438,90.30419 C351.13672,92.75243 380,123.13817 380,160.13769 C380,198.33398 348.90332,229.71484 310.68164,230.08984 C310.64746,230.09082 310.61328,230.09082 310.5791,230.09082 Z M300.00293,210.08691 L310.53418,210.09082 C337.81445,209.7959 360,187.39697 360,160.1377 C360,132.57178 337.5625,110.14502 309.9834,110.14502 C308.80469,110.14502 307.54492,110.22168 306.46875,110.29639 C303.82617,110.47852 301.19531,109.59961 299.19141,107.84717 C297.18848,106.09473 295.96582,103.61621 295.7959,100.96045 C292.90235,55.86377 255.19727,20.53809 209.95557,20.53809 C179.61719,20.53809 152.09815,36.04834 136.3418,62.02735 C134.74707,64.65723 132.03028,66.40674 128.97608,66.77149 C125.92383,67.13379 122.87012,66.07471 120.70118,63.89356 C115.47999,58.64356 108.52784,55.75245 101.1255,55.75245 C85.90089,55.75245 73.51466,68.13868 73.51466,83.36378 C73.51466,87.70753 74.5005,91.87062 76.44484,95.7378 C77.9717,98.77491 77.85109,102.37989 76.12453,105.3086 C74.39797,108.23682 71.30178,110.08741 67.9048,110.22169 C41.0425,111.28224 20.00001,133.18702 20.00001,160.08937 C20.00001,187.61037 42.30274,210.00001 69.71681,210.00001 L80,210.00001 L300.00293,210.08691 Z" id="Shape"></path>
                <path d="M94.00244,365.05371 C91.4414,365.05371 88.88086,364.07617 86.92773,362.12109 C83.02441,358.21386 83.02783,351.88281 86.93505,347.97949 L148.83837,286.13867 C152.7456,282.23633 159.07714,282.23828 162.98046,286.14551 C166.88378,290.05274 166.88036,296.38379 162.97314,300.28711 L101.06982,362.12793 C99.11768,364.07812 96.56006,365.05371 94.00244,365.05371 Z" id="Shape"></path>
                <path d="M155.87451,365.08496 C153.31347,365.08496 150.75293,364.10742 148.7998,362.15234 L86.95898,300.24902 C83.05566,296.34179 83.05908,290.01074 86.9663,286.10742 C90.87401,282.20508 97.20556,282.20703 101.10839,286.11426 L162.94921,348.01758 C166.85253,351.92481 166.84911,358.25586 162.94189,362.15918 C160.98975,364.10938 158.43213,365.08496 155.87451,365.08496 Z" id="Shape"></path>
                <path d="M174.9541,334 C174.95215,334 174.95117,334 174.94922,334 L74.94922,334.0293 C69.42627,334.02637 64.95117,329.53223 64.9541,324.00977 C64.95703,318.48829 69.43359,314 74.9541,314 C74.95556,314 74.95752,314 74.95898,314 L174.95898,314.104 C180.48193,314.10693 184.95703,318.53442 184.9541,324.05688 C184.95117,329.57739 180.47412,334 174.9541,334 Z" id="Shape"></path>
                <path d="M124.92871,384 C124.92676,384 124.92578,384 124.92383,384 C119.40088,384 114.92578,379.58398 114.92871,374.06152 L114.97949,274.02832 C114.98242,268.50684 119.45947,264 124.97949,264 C124.98144,264 124.98242,264 124.98437,264 C130.50732,264 134.98242,268.54883 134.97949,274.07129 L134.92871,374.03809 C134.92578,379.55957 130.44873,384 124.92871,384 Z" id="Shape"></path>
                <path d="M232.71094,320.73438 C229.26563,320.73438 225.91406,318.95313 224.05762,315.76075 C221.28028,310.98731 222.89844,304.86622 227.67285,302.08887 L288.17871,266.88965 C292.95312,264.1084 299.07422,265.73047 301.85059,270.50488 C304.62793,275.27832 303.00977,281.39941 298.23536,284.17676 L237.7295,319.37598 C236.14746,320.29688 234.41797,320.73438 232.71094,320.73438 Z" id="Shape"></path>
                <path d="M293.70703,319.83008 C292.0957,319.83008 290.46191,319.43946 288.94531,318.61719 L227.42187,285.22657 C222.56835,282.5918 220.76855,276.52149 223.40332,271.667 C226.03711,266.81348 232.10644,265.01466 236.96289,267.64845 L298.48633,301.03907 C303.33985,303.67384 305.13965,309.74415 302.50488,314.59864 C300.69336,317.93652 297.25586,319.83008 293.70703,319.83008 Z" id="Shape"></path>
                <path d="M262.93652,338 C262.93457,338 262.93359,338 262.93164,338 C257.4082,338 252.93359,333.29004 252.93652,327.76758 L252.97168,258.96973 C252.97461,253.44825 257.45117,249 262.97168,249 C262.97363,249 262.97461,249 262.97656,249 C268.5,249 272.97461,253.34326 272.97168,258.86572 L272.93652,327.84692 C272.93359,333.36841 268.45703,338 262.93652,338 Z" id="Shape"></path>
            </g>
        </g>
    </g>
</svg>