<?xml version="1.0" encoding="UTF-8"?>
<svg width="351px" height="248px" viewBox="0 0 351 248" version="1.1" 
    xmlns="http://www.w3.org/2000/svg" 
    xmlns:xlink="http://www.w3.org/1999/xlink">
    <!-- Generator: Sketch 49 (51002) - http://www.bohemiancoding.com/sketch -->
    <title>50d</title>
    <desc>Created with Sketch.</desc>
    <defs></defs>
    <g id="Page-1" stroke="none" stroke-width="1" fill="none" fill-rule="evenodd">
        <g id="weather" transform="translate(-1640.000000, -736.000000)" fill="#f8f8f2" fill-rule="nonzero">
            <g id="50d" transform="translate(1640.000000, 736.000000)">
                <path d="M290,136 L36.91797,136 C17.24609,136 0.62598,119.06104 0.62598,99.01074 C0.62598,78.61474 16.87989,62.02099 36.8584,62.02099 C56.82129,62.02099 73.06152,78.50585 73.06152,98.76806 C73.06152,104.29101 68.58398,108.76806 63.06152,108.76806 C57.53906,108.76806 53.06152,104.29101 53.06152,98.76806 C53.06152,89.69042 45.6416,82.02099 36.8584,82.02099 C28.05957,82.02099 20.62598,89.80126 20.62598,99.01074 C20.62598,108.21972 28.08692,116 36.91797,116 L290,116 C295.52246,116 300,120.47705 300,126 C300,131.52295 295.52246,136 290,136 Z" id="Shape"></path>
                <path d="M341,93 L136.1377,93 C111.01172,93 90.57032,72.35693 90.57032,46.98291 C90.57032,21.60889 110.91895,0.96533 135.93067,0.96533 C160.88575,0.96533 181.18751,21.52588 181.18751,46.79834 C181.18751,52.32129 176.70997,56.79834 171.18751,56.79834 C165.66505,56.79834 161.18751,52.32129 161.18751,46.79834 C161.18751,32.5542 149.85743,20.96533 135.93067,20.96533 C121.94727,20.96533 110.57032,32.63672 110.57032,46.98291 C110.57032,61.08545 122.27833,73 136.1377,73 L341,73 C346.52246,73 351,77.47705 351,83 C351,88.52295 346.52246,93 341,93 Z" id="Shape"></path>
                <path d="M69.36426,247.82324 C57.22559,247.82324 45.84278,243.21679 37.31153,234.85254 C28.6963,226.40625 23.95118,215.0625 23.95118,202.91211 C23.95118,178.14746 44.36915,158 69.46583,158 L319,158 C324.52246,158 329,162.47754 329,168 C329,173.52246 324.52246,178 319,178 L69.46582,178 C55.1582,178 43.95117,188.94238 43.95117,202.91211 C43.95117,216.88086 55.11426,227.82324 69.36426,227.82324 C83.58594,227.82324 94.72656,216.7998 94.72656,202.72754 C94.72656,197.20508 99.2041,192.72754 104.72656,192.72754 C110.24902,192.72754 114.72656,197.20508 114.72656,202.72754 C114.72656,227.59375 94.37695,247.82324 69.36426,247.82324 Z" id="Shape"></path>
            </g>
        </g>
    </g>
</svg>