<?xml version="1.0" encoding="UTF-8"?>
<svg width="460px" height="420px" viewBox="0 0 460 420" version="1.1" 
    xmlns="http://www.w3.org/2000/svg" 
    xmlns:xlink="http://www.w3.org/1999/xlink">
    <!-- Generator: Sketch 49 (51002) - http://www.bohemiancoding.com/sketch -->
    <title>02d</title>
    <desc>Created with Sketch.</desc>
    <defs></defs>
    <g id="Page-1" stroke="none" stroke-width="1" fill="none" fill-rule="evenodd">
        <g id="weather" transform="translate(-1031.000000, -14.000000)" fill="#f8f8f2" fill-rule="nonzero">
            <g id="02d" transform="translate(1031.000000, 14.000000)">
                <path d="M326.79785,270.00049 C323.88965,270.00049 321.00586,268.73779 319.0293,266.30371 C315.54785,262.0166 316.20118,255.71875 320.48828,252.2373 C339.30566,236.95654 350.09766,214.30712 350.09766,190.09765 C350.09766,145.98535 314.20996,110.09765 270.09766,110.09765 C229.29444,110.09765 195.1167,140.62597 190.5962,181.10888 C189.98341,186.59765 185.03907,190.54784 179.54835,189.93798 C174.06007,189.3247 170.10694,184.37841 170.72023,178.88964 C176.37209,128.27001 219.09474,90.09765 270.09767,90.09765 C325.23829,90.09765 370.09767,134.95751 370.09767,190.09765 C370.09767,220.35888 356.61134,248.66699 333.09572,267.76269 C331.24219,269.26807 329.0127,270.00049 326.79785,270.00049 Z" id="Shape"></path>
                <path d="M270,74 C264.47754,74 260,69.52295 260,64 L260,10 C260,4.47705 264.47754,0 270,0 C275.52246,0 280,4.47705 280,10 L280,64 C280,69.52295 275.52246,74 270,74 Z" id="Shape"></path>
                <path d="M144,200 L90,200 C84.47705,200 80,195.52295 80,190 C80,184.47705 84.47705,180 90,180 L144,180 C149.52295,180 154,184.47705 154,190 C154,195.52295 149.52295,200 144,200 Z" id="Shape"></path>
                <path d="M450,200 L396,200 C390.47754,200 386,195.52295 386,190 C386,184.47705 390.47754,180 396,180 L450,180 C455.52246,180 460,184.47705 460,190 C460,195.52295 455.52246,200 450,200 Z" id="Shape"></path>
                <path d="M358.54199,111.45801 C355.98242,111.45801 353.42383,110.48194 351.4707,108.5293 C347.56543,104.62403 347.56543,98.292 351.4707,94.38672 L390.208,55.64942 C394.11425,51.74415 400.44433,51.74415 404.35058,55.64942 C408.25585,59.55469 408.25585,65.88672 404.35058,69.792 L365.61328,108.5293 C363.66016,110.48193 361.10156,111.45801 358.54199,111.45801 Z" id="Shape"></path>
                <path d="M181.45801,111.45801 C178.89893,111.45801 176.33936,110.48194 174.38672,108.5293 L135.64942,69.792 C131.74463,65.88673 131.74463,59.5547 135.64942,55.64942 C139.55469,51.74415 145.88672,51.74415 149.792,55.64942 L188.5293,94.38672 C192.43409,98.29199 192.43409,104.62402 188.5293,108.5293 C186.57666,110.48193 184.01709,111.45801 181.45801,111.45801 Z" id="Shape"></path>
                <path d="M397.2793,327.2793 C394.71973,327.2793 392.16114,326.30323 390.20801,324.35059 L351.47071,285.61329 C347.56544,281.70802 347.56544,275.37599 351.47071,271.47071 C355.37696,267.56544 361.70704,267.56544 365.61329,271.47071 L404.35059,310.20801 C408.25586,314.11328 408.25586,320.44531 404.35059,324.35059 C402.39746,326.30322 399.83887,327.2793 397.2793,327.2793 Z" id="Shape"></path>
                <path d="M69.9668,420 C31.49512,419.74658 0.25,388.3418 0.25,349.99365 C0.25,316.66943 23.23682,288.81396 54.52881,281.73095 C54.02002,278.93163 53.76465,276.07519 53.76465,273.17187 C53.76465,246.91943 75.12256,225.56152 101.37549,225.56152 C110.09522,225.56152 118.45313,227.88867 125.74512,232.24951 C145.72608,205.82666 176.55713,190.35205 210.20557,190.35205 C262.79395,190.35205 307.1211,229.09033 314.98633,280.13623 C351.38477,282.58838 380.25,312.98389 380.25,349.99365 C380.25,388.21582 349.1543,419.61816 310.93164,419.99463 L69.9668,420 Z M101.37549,245.56152 C86.15088,245.56152 73.76465,257.94726 73.76465,273.17187 C73.76465,277.51513 74.75049,281.67871 76.69483,285.54589 C78.22169,288.583 78.10108,292.18798 76.37452,295.11669 C74.64796,298.04491 71.55177,299.8955 68.15479,300.02978 C41.29249,301.09033 20.25,323.0371 20.25,349.99365 C20.25,377.38623 42.58252,399.81933 70.03271,400 L310.833,399.99512 C338.0371,399.72657 360.24999,377.2959 360.24999,349.99366 C360.24999,322.41407 337.81249,299.97657 310.23339,299.97657 C309.20605,299.97657 308.08886,300.021 306.71874,300.11622 C304.07226,300.29737 301.44433,299.41993 299.4414,297.667 C297.43847,295.91456 296.21581,293.43653 296.04589,290.78028 C293.15234,245.68018 255.44726,210.35206 210.20556,210.35206 C179.86572,210.35206 152.34667,225.86085 136.59179,251.8379 C134.99706,254.46778 132.28027,256.21729 129.22607,256.58204 C126.17236,256.94239 123.12011,255.88526 120.95117,253.70411 C115.729,248.45312 108.77686,245.56152 101.37549,245.56152 Z" id="Shape"></path>
            </g>
        </g>
    </g>
</svg>