<?xml version="1.0" encoding="UTF-8"?>
<svg width="340px" height="191px" viewBox="0 0 340 191" version="1.1" 
    xmlns="http://www.w3.org/2000/svg" 
    xmlns:xlink="http://www.w3.org/1999/xlink">
    <!-- Generator: Sketch 49 (51002) - http://www.bohemiancoding.com/sketch -->
    <title>04n</title>
    <desc>Created with Sketch.</desc>
    <defs></defs>
    <g id="Page-1" stroke="none" stroke-width="1" fill="none" fill-rule="evenodd">
        <g id="weather" transform="translate(-22.000000, -139.000000)" fill="#f8f8f2" fill-rule="nonzero">
            <g id="04n" transform="translate(22.000000, 139.000000)">
                <path d="M81.12549,35.75391 C65.90088,35.75391 53.51465,48.13965 53.51465,63.36426 C53.51465,67.70752 54.50049,71.8711 56.44483,75.73828 C57.97169,78.77539 57.85108,82.38037 56.12452,85.30908 C54.39796,88.2373 51.30177,90.08789 47.90479,90.22217 C21.04248,91.28271 0,113.22949 0,140.18604 C0,167.57862 22.33252,190.01172 49.78271,190.19239 L290.58349,190.18751 C317.78759,189.91896 339.99999,167.48829 339.99999,140.18605 C339.99999,112.60646 317.56249,90.16896 289.98339,90.16896 C288.95556,90.16896 287.83837,90.21339 286.46777,90.30861 C283.81445,90.49367 281.19384,89.61134 279.19091,87.85939 C277.18798,86.10695 275.96581,83.62843 275.7954,80.97267 C272.90233,35.87257 235.19726,0.54445 189.95556,0.54445 C159.61572,0.54445 132.09667,16.05324 116.34179,42.03029 C114.74706,44.66017 112.03027,46.40968 108.97607,46.77443 C105.92334,47.13478 102.87011,46.07765 100.70117,43.8965 C95.479,38.64551 88.52686,35.75391 81.12549,35.75391 Z" id="Shape"></path>
            </g>
        </g>
    </g>
</svg>