<?xml version="1.0" encoding="UTF-8"?>
<svg width="411px" height="440px" viewBox="0 0 411 440" version="1.1" 
    xmlns="http://www.w3.org/2000/svg" 
    xmlns:xlink="http://www.w3.org/1999/xlink">
    <!-- Generator: Sketch 49 (51002) - http://www.bohemiancoding.com/sketch -->
    <title>10n</title>
    <desc>Created with Sketch.</desc>
    <defs></defs>
    <g id="Page-1" stroke="none" stroke-width="1" fill="none" fill-rule="evenodd">
        <g id="weather" transform="translate(-2169.000000, -642.000000)" fill="#f8f8f2" fill-rule="nonzero">
            <g id="10n" transform="translate(2169.000000, 642.000000)">
                <path d="M65.06836,335.61523 C29.2168,335.3789 0.10254,306.11523 0.10254,270.38183 C0.10254,239.59179 21.16406,213.81152 49.94727,206.94482 C49.55665,204.56054 49.36036,202.13378 49.36036,199.67138 C49.36036,175.06835 69.37598,155.05273 93.97852,155.05273 C101.90821,155.05273 109.51758,157.10546 116.20508,160.96093 C134.75781,136.78466 163.16797,122.64404 194.15235,122.64404 C242.73633,122.64404 283.72266,158.27441 291.28516,205.33349 C324.90235,207.92626 351.46485,236.11035 351.46485,270.38183 C351.46485,305.99804 322.48926,335.25878 286.87403,335.61035 L65.06836,335.61523 Z M93.97852,175.05273 C80.4043,175.05273 69.36036,186.09668 69.36036,199.67138 C69.36036,203.54345 70.23927,207.25536 71.97266,210.70409 C73.5,213.7412 73.37891,217.34618 71.65235,220.2744 C69.92579,223.20311 66.82911,225.05321 63.43262,225.18749 C39.13574,226.14696 20.10254,245.99901 20.10254,270.38183 C20.10254,295.16015 40.30371,315.45117 65.13477,315.61523 L286.77539,315.61035 C311.37305,315.36816 331.46484,295.07812 331.46484,270.38183 C331.46484,245.43456 311.16894,225.13915 286.22265,225.13915 C285.29492,225.13915 284.28417,225.17919 283.04199,225.26561 C280.37695,225.45116 277.76758,224.56786 275.76562,222.8159 C273.76269,221.06395 272.54101,218.58543 272.37011,215.92967 C269.73339,174.83494 235.37597,142.64403 194.15234,142.64403 C166.50683,142.64403 141.43066,156.77587 127.07324,180.44725 C125.47851,183.07713 122.76172,184.82664 119.70801,185.1909 C116.65528,185.55272 113.60254,184.49412 111.43262,182.31297 C106.77734,177.63086 100.57812,175.05273 93.97852,175.05273 Z" id="Shape"></path>
                <path d="M347.24707,218.88428 C342.98047,218.88428 339.0293,216.1333 337.69922,211.84424 C336.0625,206.56934 339.0127,200.9668 344.28711,199.33057 C358.10645,195.04444 370.77051,187.41309 381.10547,177.29444 C360.38672,172.08253 341.52246,160.96339 326.74317,145.02051 C307.62598,124.39893 297.09766,97.54639 297.09766,69.41016 C297.09766,52.59424 300.82032,36.27295 307.97168,21.37549 C288.22168,23.36963 269.69141,31.72217 255.02344,45.39307 C238.16797,61.10303 227.94141,82.35938 226.22949,105.24659 C225.81836,110.75391 221.00586,114.89307 215.51172,114.47266 C210.00488,114.06055 205.87402,109.26221 206.28613,103.7544 C208.37402,75.83545 220.83984,49.91309 241.38672,30.76221 C262.04102,11.51221 288.97363,0.91065 317.22266,0.91065 C320.19922,0.91065 323.24317,1.03419 326.27051,1.27833 C329.84668,1.5669 332.99512,3.74952 334.51953,6.99757 C336.04394,10.24611 335.71094,14.06202 333.64746,16.99757 C322.82031,32.39698 317.09766,50.52101 317.09766,69.41017 C317.09766,92.48781 325.73243,114.51173 341.41016,131.42384 C357.00489,148.24611 378.13477,158.52101 400.90625,160.35646 C404.48242,160.64503 407.63086,162.82765 409.15527,166.0757 C410.67968,169.32424 410.34668,173.14064 408.2832,176.0757 C394.16699,196.15334 373.54394,211.19631 350.21289,218.43312 C349.22656,218.73877 348.22754,218.88428 347.24707,218.88428 Z" id="Shape"></path>
                <path d="M155.26562,439.12695 C152.7041,439.12695 150.14355,438.14941 148.1914,436.19433 C144.28808,432.2871 144.29101,425.95507 148.19824,422.05273 L171.24804,399.02636 C175.15527,395.12304 181.48827,395.12597 185.38964,399.0332 C189.29296,402.94043 189.29003,409.27246 185.3828,413.1748 L162.333,436.20117 C160.38086,438.15137 157.82324,439.12695 155.26562,439.12695 Z" id="Shape"></path>
                <path d="M75.18555,386.66113 C72.62403,386.66113 70.06348,385.68359 68.11035,383.72851 C64.20801,379.82128 64.21094,373.48925 68.11816,369.58593 L82.65429,355.06542 C86.56152,351.1621 92.89355,351.16601 96.79687,355.07323 C100.69921,358.98046 100.69628,365.31249 96.78906,369.21581 L82.25293,383.73632 C80.30078,385.68652 77.74316,386.66113 75.18555,386.66113 Z" id="Shape"></path>
                <path d="M203.12891,386.66113 C200.56739,386.66113 198.00782,385.68359 196.05469,383.72851 C192.15137,379.82128 192.1543,373.49023 196.06153,369.58691 L210.59669,355.0664 C214.50392,351.16308 220.83497,351.16601 224.73829,355.07324 C228.64161,358.98047 228.63868,365.31152 224.73145,369.21484 L210.19629,383.73535 C208.24414,385.68555 205.68652,386.66113 203.12891,386.66113 Z" id="Shape"></path>
                <path d="M244.54883,409.82324 C241.98731,409.82324 239.42578,408.8457 237.47363,406.88965 C233.57031,402.98242 233.57422,396.65039 237.48242,392.74805 L275.21387,355.06543 C279.12207,351.16113 285.45508,351.16602 289.35547,355.07422 C293.25879,358.98145 293.25488,365.31348 289.34668,369.21582 L251.61523,406.89844 C249.66309,408.84863 247.10547,409.82324 244.54883,409.82324 Z" id="Shape"></path>
                <path d="M105.56055,419.94824 C102.99903,419.94824 100.43848,418.9707 98.48633,417.01562 C94.58301,413.10839 94.58594,406.77636 98.49317,402.87402 L146.34962,355.0664 C150.25685,351.16308 156.58985,351.16601 160.49122,355.07324 C164.39454,358.98047 164.39161,365.3125 160.48438,369.21484 L112.62793,417.02246 C110.67578,418.97266 108.11816,419.94824 105.56055,419.94824 Z" id="Shape"></path>
            </g>
        </g>
    </g>
</svg>