<?xml version="1.0" encoding="UTF-8"?>
<svg width="221px" height="241px" viewBox="0 0 221 241" version="1.1" 
    xmlns="http://www.w3.org/2000/svg" 
    xmlns:xlink="http://www.w3.org/1999/xlink">
    <!-- Generator: Sketch 49 (51002) - http://www.bohemiancoding.com/sketch -->
    <title>01n</title>
    <desc>Created with Sketch.</desc>
    <defs></defs>
    <g id="Page-1" stroke="none" stroke-width="1" fill="none" fill-rule="evenodd">
        <g id="weather" transform="translate(-1150.000000, -1334.000000)" fill="#f8f8f2" fill-rule="nonzero">
            <g id="01n" transform="translate(1150.000000, 1334.000000)">
                <path d="M120.91211,240.09766 C54.74414,240.09766 0.91211,186.26563 0.91211,120.09766 C0.91211,53.92969 54.74414,0.09766 120.91211,0.09766 C124.11768,0.09766 127.40186,0.23145 130.67285,0.49512 C134.25,0.78418 137.39746,2.9668 138.92187,6.21485 C140.44628,9.4629 140.11328,13.2793 138.0498,16.21485 C126.18408,33.09083 119.9121,52.95313 119.9121,73.65333 C119.9121,98.94435 129.3745,123.07911 146.55663,141.61329 C163.64647,160.04884 186.80272,171.30958 211.75878,173.3213 C215.33495,173.60939 218.48339,175.792 220.0078,179.04103 C221.53221,182.28908 221.19921,186.10548 219.13573,189.04103 C196.65723,221.01074 159.93848,240.09766 120.91211,240.09766 Z M112.31299,20.46387 C61.18457,24.84082 20.91211,67.85547 20.91211,120.09766 C20.91211,175.23828 65.77197,220.09766 120.91211,220.09766 C147.80273,220.09766 173.37988,209.22168 192.02441,190.38965 C169.08886,184.9336 148.1875,172.79102 131.88964,155.21094 C111.26855,132.9668 99.9121,104.00293 99.9121,73.65332 C99.91211,54.99512 104.16016,36.90137 112.31299,20.46387 Z" id="Shape"></path>
            </g>
        </g>
    </g>
</svg>